<?xml version="1.0" encoding="utf-8"?>
<!-- Generator: Adobe Illustrator 21.0.2, SVG Export Plug-In . SVG Version: 6.00 Build 0)  -->
<svg version="1.1" id="Layer_1" xmlns="http://www.w3.org/2000/svg" xmlns:xlink="http://www.w3.org/1999/xlink" x="0px" y="0px"
	 viewBox="0 0 958.8 299.9" style="enable-background:new 0 0 958.8 299.9;" xml:space="preserve">
<style type="text/css">
	.st0{fill:#4ABAFF;stroke:#000000;stroke-width:0.75;stroke-miterlimit:10;}
	.st1{fill:#77757F;stroke:#000000;stroke-width:0.75;stroke-miterlimit:10;}
	.st2{fill:#57575C;stroke:#000000;stroke-width:0.75;stroke-miterlimit:10;}
	.st3{fill:#B9CED9;stroke:#000000;stroke-width:0.75;stroke-miterlimit:10;}
	.st4{fill:#364A57;stroke:#000000;stroke-width:0.75;stroke-miterlimit:10;}
	.st5{fill:#CE9696;stroke:#000000;stroke-width:0.75;stroke-miterlimit:10;}
	.st6{fill:#EAA9A9;stroke:#000000;stroke-width:0.75;stroke-miterlimit:10;}
	.st7{fill:#476172;stroke:#000000;stroke-width:0.75;stroke-miterlimit:10;}
	.st8{fill:#DD6B5B;stroke:#000000;stroke-width:0.75;stroke-miterlimit:10;}
	.st9{fill:#FFF64A;stroke:#000000;stroke-width:0.75;stroke-miterlimit:10;}
	.st10{fill:#4ABAFF;stroke:#000000;stroke-width:1.5;stroke-miterlimit:10;}
	.st11{font-family:'NanumPen';}
	.st12{font-size:338.2797px;}
	.st13{font-size:236.7958px;}
	.st14{fill:#FFF64A;stroke:#000000;stroke-width:1.5;stroke-miterlimit:10;}
	.st15{fill:none;}
</style>
<path class="st0" d="M846.2,194.4h-14.8H824h-14.8v93.2c0,3.6,3.3,6.5,7.4,6.5h44.3v-99.7L846.2,194.4z"/>
<path class="st1" d="M919.2,61.7L899,57.5l4.1-19.9c0.8-3.7-1.7-7.2-5.4-8l-53.9-11c-3.7-0.8-7.4,1.6-8.1,5.2l-4.1,19.9l-20.2-4.1
	c-3.7-0.8-7.4,1.6-8.1,5.2c-0.8,3.7,1.7,7.2,5.4,8l27,5.5l47,9.6h0.1l33.8,6.9h0.1c0.9,0.2,1.8,0.2,2.7,0c2.6-0.5,4.9-2.5,5.4-5.3
	C925.3,66,922.9,62.4,919.2,61.7z M885.5,54.8L845,46.5l2.7-13.2l40.5,8.3L885.5,54.8z"/>
<path class="st2" d="M845,46.5l2.7-13.2l19.5,4l2.7-13.2l-26.2-5.4c-3.7-0.8-7.4,1.6-8.1,5.2l-4.1,19.9l-20.2-4.1
	c-3.7-0.8-7.4,1.6-8.1,5.2c-0.8,3.7,1.7,7.2,5.4,8l27,5.5l26.3,5.4l2.7-13.2L845,46.5z"/>
<path class="st3" d="M924.3,101.7c-1.1-14.8-14.2-26-29.3-25c-11.2,0.8-20.6,8.1-24,18.2h-20.1c-3.5-10.2-12.9-17.5-24-18.2
	c-15.1-1-28.2,10.2-29.3,25c-0.5,7.2,1.8,14.1,6.6,19.6c4.6,5.2,10.9,8.4,17.8,9.1l-1.9,19.8c-2,13.9,6.3,25.4,20.8,28.5
	c7.1,1.5,14,0.1,18.9-3.8c0.4-0.3,0.7-0.6,1-0.9c0.3,0.3,0.7,0.6,1,0.9c3.7,2.9,8.4,4.4,13.4,4.4c1.8,0,3.7-0.2,5.6-0.6
	c14.5-3.1,22.9-14.6,20.8-28.6l-1.9-19.7c6.9-0.7,13.2-3.9,17.8-9.1C922.4,115.8,924.8,108.8,924.3,101.7z"/>
<g>
	<path class="st4" d="M848.6,137c-2.8,0-5-2.2-5-4.9v-2.6c0-2.7,2.2-4.9,5-4.9s5,2.2,5,4.9v2.6C853.6,134.8,851.4,137,848.6,137z"/>
	<path class="st4" d="M873.2,137c-2.8,0-5-2.2-5-4.9v-2.6c0-2.7,2.2-4.9,5-4.9s5,2.2,5,4.9v2.6C878.2,134.8,876,137,873.2,137z"/>
</g>
<g>
	<ellipse class="st5" cx="824.2" cy="101.9" rx="8.7" ry="8.6"/>
	<ellipse class="st5" cx="897.6" cy="101.9" rx="8.7" ry="8.6"/>
</g>
<path class="st3" d="M861.2,94.9h-10.3c-3.5-10.2-12.9-17.5-24-18.2c-15.1-1-28.2,10.2-29.3,25c-0.5,7.2,1.8,14.1,6.6,19.6
	c4.6,5.2,10.9,8.4,17.8,9.1l-1.9,19.8c-2,13.9,6.3,25.4,20.8,28.5c7.1,1.5,14,0.1,18.9-3.8c0.4-0.3,0.7-0.6,1-0.9
	c0.1,0.1,0.2,0.1,0.2,0.2L861.2,94.9L861.2,94.9z"/>
<ellipse class="st6" cx="824.2" cy="101.9" rx="8.7" ry="8.6"/>
<g>
	<path class="st4" d="M884.5,155.6c-2.6,0-4.8-2-5-4.6c-0.2-2.7,1.9-5,4.6-5.2l24.6-1.7c2.7-0.2,5.1,1.8,5.3,4.5s-1.9,5-4.6,5.2
		l-24.6,1.7C884.7,155.5,884.6,155.6,884.5,155.6z"/>
	<path class="st4" d="M905.3,175.9c-0.6,0-1.2-0.1-1.8-0.3l-24.9-9.3c-2.6-1-3.9-3.8-2.9-6.3s3.9-3.8,6.4-2.8l24.9,9.3
		c2.6,1,3.9,3.8,2.9,6.3C909.2,174.7,907.3,175.9,905.3,175.9z"/>
</g>
<g>
	<path class="st7" d="M848.6,137c-2.8,0-5-2.2-5-4.9v-2.6c0-2.7,2.2-4.9,5-4.9s5,2.2,5,4.9v2.6C853.6,134.8,851.4,137,848.6,137z"/>
	<path class="st7" d="M837.4,155.6c-0.1,0-0.2,0-0.4,0l-24.6-1.7c-2.7-0.2-4.8-2.5-4.6-5.2s2.6-4.7,5.3-4.5l24.6,1.7
		c2.7,0.2,4.8,2.5,4.6,5.2C842.1,153.6,839.9,155.6,837.4,155.6z"/>
	<path class="st7" d="M816.6,175.9c-2,0-3.9-1.2-4.7-3.2c-1-2.5,0.3-5.4,2.9-6.3l24.9-9.3c2.6-1,5.4,0.3,6.4,2.8s-0.3,5.4-2.9,6.3
		l-24.9,9.3C817.8,175.8,817.2,175.9,816.6,175.9z"/>
</g>
<path class="st8" d="M861.2,154.7h-2.6c-2.8,0-5,2.2-5,4.9s2.2,4.9,5,4.9h2.6V154.7z"/>
<path class="st9" d="M860.9,194.5v99.7h44.3c4.1,0,7.4-2.9,7.4-6.5v-93.2h-14.8h-7.4h-14.8L860.9,194.5L860.9,194.5z"/>
<text transform="matrix(0.8234 0 0 1 8.1616 314.1035)" class="st10 st11 st12">R</text>
<text transform="matrix(0.8234 0 0 1 132.9502 314.1035)" class="st10 st11 st13">EUSE</text>
<text transform="matrix(0.8234 0 0 1 455.0547 314.1035)" class="st14 st11 st12">R</text>
<text transform="matrix(0.8234 0 0 1 579.8418 314.1035)" class="st14 st11 st13">AT</text>
<path class="st15" d="M965.2,120.7"/>
<ellipse class="st6" cx="897.6" cy="101.9" rx="8.7" ry="8.6"/>
<path class="st8" d="M861.2,164.4h2.6c2.8,0,5-2.2,5-4.9s-2.2-4.9-5-4.9h-2.6V164.4z"/>
<rect x="-93.2" y="-106.1" class="st15" width="883.8" height="525.8"/>
</svg>
