<svg xmlns="http://www.w3.org/2000/svg" width="512" height="512" viewBox="0 0 40.251 40.251"><path d="M36.691 11.558h-5.522l2.763 4.782zm-6.903 0h-5.52l2.759 4.782zm-6.901 0h-5.523l2.761 4.782zm-6.904 0h-5.521l2.762 4.782zm-6.901 0H3.56l2.76 4.782zm.689.398l-2.759 4.782h5.521zm6.903 0l-2.76 4.782h5.522zm6.903 0l-2.762 4.782h5.522zm6.902 0l-2.761 4.782h5.521zm2.76 5.579h-5.521l2.761 4.781zm-6.902 0h-5.522l2.762 4.781zm-6.901 0h-5.522l2.76 4.781zm-6.903 0H7.012l2.759 4.781zm7.592.399l-2.761 4.782h5.523zM9.771 0L7.012 4.782h5.521zm20.708 0l-2.761 4.782h5.521zm2.76 5.579h-5.521l2.761 4.782zm-20.706 0H7.012l2.759 4.782zm-6.213.399L3.56 10.76h5.522zm6.904 0l-2.762 4.782h5.521zm13.803 0l-2.759 4.782h5.52zm6.905 0l-2.763 4.782h5.522zm-4.144 17.536h-5.52l2.759 4.781zm-13.805 0h-5.521l2.762 4.781zm.691.397l-2.76 4.782h5.522zm6.903 0l-2.762 4.782h5.522zm2.76 5.58h-5.522l2.762 4.782zm-6.901 0h-5.522l2.76 4.782zm.689.4l-2.761 4.781h5.523zm2.762 5.578h-5.523l2.761 4.782z" fill="#45a5ff"/></svg>